HIERARCHY
ROOT Hips
{
	OFFSET 0.000000 0.000000 0.000000
	CHANNELS 6 Xposition Yposition Zposition Xrotation Yrotation Zrotation
	JOINT LeftUpLeg_virtual
	{
		OFFSET 0.000000 0.000000 0.000000
		CHANNELS 3 Xrotation Yrotation Zrotation
		JOINT LeftUpLeg
		{
			OFFSET 11.394100 -6.187798 -0.413800
			CHANNELS 3 Xrotation Yrotation Zrotation
			JOINT LeftLeg
			{
				OFFSET 0.430247 -32.302673 3.732800
				CHANNELS 3 Xrotation Yrotation Zrotation
				JOINT LeftFoot
				{
					OFFSET -0.430247 -48.264931 -6.423300
					CHANNELS 3 Xrotation Yrotation Zrotation
					JOINT LeftToeBase
					{
						OFFSET 4.230900 -16.068199 23.438400
						CHANNELS 3 Xrotation Yrotation Zrotation
						JOINT LeftToe_End
						{
							OFFSET 4.510700 0.695400 19.974600
							CHANNELS 3 Xrotation Yrotation Zrotation
							End Site
							{
								OFFSET 0 0 0
							}
						}
					}
				}
			}
		}
	}
	JOINT RightUpLeg_virtual
	{
		OFFSET 0.000000 0.000000 0.000000
		CHANNELS 3 Xrotation Yrotation Zrotation
		JOINT RightUpLeg
		{
			OFFSET -11.333700 -6.187798 -0.413800
			CHANNELS 3 Xrotation Yrotation Zrotation
			JOINT RightLeg
			{
				OFFSET -0.430392 -32.302628 3.733000
				CHANNELS 3 Xrotation Yrotation Zrotation
				JOINT RightFoot
				{
					OFFSET 0.430392 -48.264973 -6.423500
					CHANNELS 3 Xrotation Yrotation Zrotation
					JOINT RightToeBase
					{
						OFFSET -4.230900 -16.068199 23.438400
						CHANNELS 3 Xrotation Yrotation Zrotation
						JOINT RightToe_End
						{
							OFFSET -4.510700 0.695400 19.974600
							CHANNELS 3 Xrotation Yrotation Zrotation
							End Site
							{
								OFFSET 0 0 0
							}
						}
					}
				}
			}
		}
	}
	JOINT Spine_virtual
	{
		OFFSET 0.000000 0.000000 0.000000
		CHANNELS 3 Xrotation Yrotation Zrotation
		JOINT Spine
		{
			OFFSET -0.002400 12.777504 0.315300
			CHANNELS 3 Xrotation Yrotation Zrotation
			JOINT Spine1
			{
				OFFSET -0.002067 5.816869 0.032633
				CHANNELS 3 Xrotation Yrotation Zrotation
				JOINT Spine1_split
				{
					OFFSET -0.002067 5.816869 0.032633
					CHANNELS 3 Xrotation Yrotation Zrotation
					JOINT Spine2
					{
						OFFSET -0.002067 5.816869 0.032633
						CHANNELS 3 Xrotation Yrotation Zrotation
						JOINT Neck_virtual
						{
							OFFSET 0.000000 0.000000 0.000000
							CHANNELS 3 Xrotation Yrotation Zrotation
							JOINT Neck
							{
								OFFSET -0.003700 21.199493 -0.826900
								CHANNELS 3 Xrotation Yrotation Zrotation
								JOINT Head
								{
									OFFSET 0.000000 20.442200 4.834800
									CHANNELS 3 Xrotation Yrotation Zrotation
									JOINT HeadTop_End
									{
										OFFSET 0.000000 34.668396 4.968400
										CHANNELS 3 Xrotation Yrotation Zrotation
										End Site
										{
											OFFSET 0 0 0
										}
									}
								}
							}
						}
						JOINT LeftShoulder_virtual
						{
							OFFSET 0.000000 0.000000 0.000000
							CHANNELS 3 Xrotation Yrotation Zrotation
							JOINT LeftShoulder
							{
								OFFSET 3.288150 8.794197 -1.372250
								CHANNELS 3 Xrotation Yrotation Zrotation
								JOINT LeftShoulder_split
								{
									OFFSET 3.288150 8.794197 -1.372250
									CHANNELS 3 Xrotation Yrotation Zrotation
									JOINT LeftArm
									{
										OFFSET 11.953299 -2.279007 -0.146200
										CHANNELS 3 Xrotation Yrotation Zrotation
										JOINT LeftForeArm
										{
											OFFSET 18.448900 0.000000 0.000000
											CHANNELS 3 Xrotation Yrotation Zrotation
											JOINT LeftHand
											{
												OFFSET 29.527798 0.000000 0.000000
												CHANNELS 3 Xrotation Yrotation Zrotation
												End Site
												{
													OFFSET 0 0 0
												}
											}
										}
									}
								}
							}
						}
						JOINT RightShoulder_virtual
						{
							OFFSET 0.000000 0.000000 0.000000
							CHANNELS 3 Xrotation Yrotation Zrotation
							JOINT RightShoulder
							{
								OFFSET -3.249400 8.794197 -1.372250
								CHANNELS 3 Xrotation Yrotation Zrotation
								JOINT RightShoulder_split
								{
									OFFSET -3.249400 8.794197 -1.372250
									CHANNELS 3 Xrotation Yrotation Zrotation
									JOINT RightArm
									{
										OFFSET -11.953299 -2.279007 -0.146200
										CHANNELS 3 Xrotation Yrotation Zrotation
										JOINT RightForeArm
										{
											OFFSET -18.448900 0.000000 0.000000
											CHANNELS 3 Xrotation Yrotation Zrotation
											JOINT RightHand
											{
												OFFSET -29.527802 0.000000 0.000000
												CHANNELS 3 Xrotation Yrotation Zrotation
												End Site
												{
													OFFSET 0 0 0
												}
											}
										}
									}
								}
							}
						}
					}
				}
			}
		}
	}
}
MOTION
Frames: 9
Frame Time: 0.03333333
3.319980 102.990326 -8.669369 0.000000 0.000000 0.000000 -3.487899 20.492156 0.835615 -23.847483 15.942584 12.910027 20.478075 4.348958 5.514010 5.557801 -10.453897 -15.484903 -4.019406 -2.775187 2.199837 0.000000 0.000000 0.000000 -2.899416 20.731315 0.639141 5.494139 -11.043243 4.092976 9.487679 -1.898887 -3.970873 -14.836317 -20.361241 11.427284 3.239656 0.499997 -22.359037 0.000000 0.000000 0.000000 -3.401420 21.659565 0.247707 3.150004 -2.549487 4.094511 -2.112739 0.316277 3.387363 0.087097 -0.128770 -0.067825 0.000000 0.000000 0.000000 -0.527740 3.294384 3.006410 20.245640 0.505114 1.344393 -3.300639 -23.797760 -13.472814 0.000000 0.000000 0.000000 -2.009480 1.441952 2.392579 -0.908237 -19.448108 -14.097974 1.611010 0.259478 -5.133604 11.626187 -1.916356 -66.550604 3.824916 -7.313941 3.989774 0.000000 0.000000 0.000000 -0.995511 1.817879 3.231872 2.959447 2.257709 17.293914 -4.389514 1.399707 -0.144602 23.586105 8.897700 55.538686 -2.604741 -3.767938 -0.643278 0.000000 0.000000 0.000000 
3.337916 103.066498 -8.650898 0.000000 0.000000 0.000000 -3.139425 19.867967 0.685049 -23.759598 16.232930 13.027333 20.144846 4.288767 5.288125 5.321298 -9.795252 -15.446017 -3.664180 -2.810543 2.336065 0.000000 0.000000 0.000000 -2.564490 20.116767 0.486523 4.902437 -11.046672 3.946438 9.332448 -1.863599 -3.927060 -14.225179 -19.692305 11.530196 2.810767 0.535222 -22.141441 0.000000 0.000000 0.000000 -2.943333 21.124763 0.052643 3.181018 -2.780045 4.205180 -2.249877 0.241620 3.383738 0.084573 -0.145438 -0.061787 0.000000 0.000000 0.000000 -0.609365 3.227139 3.011329 20.091452 0.518521 1.149424 -3.465651 -22.387412 -13.877792 0.000000 0.000000 0.000000 -2.148424 1.394045 2.365434 -0.941109 -19.683354 -14.416381 1.841078 0.262382 -4.826212 12.296606 -0.522524 -66.973256 3.816118 -7.798727 3.843073 0.000000 0.000000 0.000000 -1.019110 1.754145 3.235161 3.088934 1.546037 17.293819 -4.963000 1.425214 -0.143868 25.659235 9.072622 54.290247 -2.967967 -4.081724 -0.197959 0.000000 0.000000 0.000000 
3.343486 103.124512 -8.680927 0.000000 0.000000 0.000000 -2.802294 19.082056 0.478896 -23.625763 16.490194 13.190089 19.873974 4.240920 5.068256 5.069185 -8.977009 -15.498772 -3.484446 -2.849664 2.411875 0.000000 0.000000 0.000000 -2.248707 19.347860 0.281446 4.292511 -11.075131 3.796989 9.176203 -1.826456 -3.855512 -13.733396 -18.849333 11.503826 2.524262 0.543621 -21.844705 0.000000 0.000000 0.000000 -2.510177 20.419469 -0.194073 3.246626 -2.940853 4.322435 -2.317503 0.204075 3.395261 0.087601 -0.134919 -0.056503 0.000000 0.000000 0.000000 -0.655155 3.182668 3.039834 19.813223 0.551737 0.900128 -3.733552 -21.115209 -14.250619 0.000000 0.000000 0.000000 -2.222492 1.373802 2.349302 -0.943180 -19.837936 -14.620892 1.920106 0.266282 -4.552737 12.766254 0.438004 -67.524739 3.856923 -8.142456 3.771902 0.000000 0.000000 0.000000 -0.984050 1.739888 3.260938 3.152434 1.254857 17.334252 -5.617208 1.329314 -0.153764 26.261799 8.604919 53.249172 -3.318583 -4.920741 0.289450 0.000000 0.000000 0.000000 
3.339556 103.176331 -8.759972 0.000000 0.000000 0.000000 -2.472015 18.219053 0.236838 -23.459618 16.653178 13.354839 19.661560 4.195805 4.882776 4.827468 -8.054501 -15.631484 -3.518182 -2.890239 2.387518 0.000000 0.000000 0.000000 -1.970551 18.488007 0.046858 3.679638 -11.127360 3.645514 8.991609 -1.811210 -3.764593 -13.342064 -17.861749 11.345349 2.403300 0.509348 -21.450537 0.000000 0.000000 0.000000 -2.121069 19.585754 -0.466014 3.334747 -3.026984 4.429565 -2.317800 0.197772 3.398386 0.095568 -0.105418 -0.053937 0.000000 0.000000 0.000000 -0.671100 3.161660 3.067955 19.412680 0.630751 0.675559 -4.015361 -19.933656 -14.581706 0.000000 0.000000 0.000000 -2.228843 1.376012 2.317118 -0.908776 -19.911487 -14.699197 1.849689 0.245158 -4.326421 13.105381 0.801360 -68.089855 3.903433 -8.256969 3.748054 0.000000 0.000000 0.000000 -0.909110 1.770117 3.285638 3.138851 1.364242 17.449134 -6.066751 1.213775 -0.194376 25.482032 7.678464 52.519739 -3.581686 -5.951957 0.750528 0.000000 0.000000 0.000000 
3.337778 103.248146 -8.875179 0.000000 0.000000 0.000000 -2.151650 17.339082 -0.019838 -23.228451 16.710686 13.466275 19.446532 4.157196 4.746912 4.617170 -7.081144 -15.809086 -3.700243 -2.928469 2.243444 0.000000 0.000000 0.000000 -1.715920 17.567405 -0.193176 3.064372 -11.183463 3.483427 8.732636 -1.801783 -3.660387 -12.939881 -16.753289 11.159040 2.277452 0.452174 -20.954402 0.000000 0.000000 0.000000 -1.791602 18.674820 -0.732868 3.424113 -3.057332 4.513406 -2.260217 0.206368 3.370475 0.103475 -0.083525 -0.057738 0.000000 0.000000 0.000000 -0.666888 3.149890 3.067528 18.924323 0.764864 0.555846 -4.188841 -18.848761 -14.859531 0.000000 0.000000 0.000000 -2.170881 1.386182 2.248025 -0.830183 -19.889583 -14.635781 1.685406 0.159271 -4.146938 13.337447 0.553497 -68.576547 3.870448 -8.156830 3.728076 0.000000 0.000000 0.000000 -0.799305 1.824436 3.276707 3.047819 1.760288 17.608113 -6.119304 1.157058 -0.301111 23.739499 6.686748 52.109975 -3.741314 -6.702858 1.139813 0.000000 0.000000 0.000000 
3.341218 103.353882 -9.035206 0.000000 0.000000 0.000000 -1.826570 16.487155 -0.263332 -22.946002 16.685918 13.508795 19.176441 4.131333 4.655357 4.450917 -6.096752 -16.003202 -3.888578 -2.959031 1.977466 0.000000 0.000000 0.000000 -1.468135 16.619256 -0.418927 2.466160 -11.229295 3.303664 8.365812 -1.795163 -3.552803 -12.417543 -15.556036 11.019012 1.996817 0.393147 -20.353390 0.000000 0.000000 0.000000 -1.500176 17.719251 -0.969220 3.493002 -3.056326 4.570748 -2.164233 0.204689 3.301631 0.103366 -0.072979 -0.063249 0.000000 0.000000 0.000000 -0.649550 3.131690 3.019820 18.383775 0.976440 0.553713 -4.205597 -17.872529 -15.058108 0.000000 0.000000 0.000000 -2.062710 1.390321 2.135705 -0.718377 -19.755079 -14.456203 1.485665 0.053731 -3.999067 13.502719 -0.171534 -68.926383 3.714548 -7.972668 3.688796 0.000000 0.000000 0.000000 -0.667243 1.873478 3.214773 2.883734 2.360005 17.758150 -5.742412 1.256679 -0.478931 21.555353 6.136846 51.975639 -3.791990 -6.815942 1.428500 0.000000 0.000000 0.000000 
3.347132 103.502274 -9.216805 0.000000 0.000000 0.000000 -1.506411 15.669251 -0.476105 -22.622071 16.626238 13.489308 18.803644 4.110515 4.599629 4.366328 -5.156298 -16.193595 -4.038962 -2.984235 1.657930 0.000000 0.000000 0.000000 -1.213106 15.697216 -0.617744 1.925409 -11.248037 3.120114 7.886173 -1.815540 -3.449978 -11.795104 -14.330048 10.881881 1.632196 0.320322 -19.647439 0.000000 0.000000 0.000000 -1.233696 16.784739 -1.172184 3.528218 -3.049960 4.593741 -2.044070 0.182270 3.194423 0.104466 -0.084001 -0.067103 0.000000 0.000000 0.000000 -0.617790 3.097572 2.932601 17.798993 1.268006 0.664183 -4.071308 -17.020777 -15.157143 0.000000 0.000000 0.000000 -1.926183 1.377581 1.989843 -0.584847 -19.529259 -14.200590 1.290787 -0.085714 -3.870899 13.641046 -1.212808 -69.124622 3.411835 -7.861153 3.620635 0.000000 0.000000 0.000000 -0.515389 1.897475 3.108392 2.660387 3.092277 17.842715 -5.145691 1.405758 -0.637020 19.331693 6.425002 52.056007 -3.760884 -6.284399 1.620672 0.000000 0.000000 0.000000 
3.361786 103.688705 -9.425423 0.000000 0.000000 0.000000 -1.206530 14.892748 -0.655550 -22.265517 16.590314 13.427556 18.318540 4.100370 4.570071 4.379417 -4.293159 -16.347416 -4.138115 -3.014716 1.362152 0.000000 0.000000 0.000000 -0.955313 14.835605 -0.790115 1.452837 -11.249654 2.935414 7.278680 -1.889561 -3.351971 -11.130400 -13.135543 10.689086 1.292383 0.226151 -18.857544 0.000000 0.000000 0.000000 -0.965696 15.910379 -1.344433 3.538204 -3.051296 4.584358 -1.901597 0.140673 3.070387 0.107302 -0.100261 -0.062493 0.000000 0.000000 0.000000 -0.575219 3.047130 2.824309 17.156126 1.613444 0.840519 -3.850775 -16.363569 -15.153828 0.000000 0.000000 0.000000 -1.767380 1.348213 1.837638 -0.446846 -19.232131 -13.934404 1.091079 -0.250061 -3.768554 13.713367 -2.437782 -69.214091 2.998679 -7.841818 3.542807 0.000000 0.000000 0.000000 -0.337519 1.895766 2.979857 2.402801 3.902981 17.823729 -4.513801 1.526477 -0.729595 17.318138 7.552764 52.369823 -3.731982 -5.235028 1.725663 0.000000 0.000000 0.000000 
3.386479 103.899628 -9.635834 0.000000 0.000000 0.000000 -0.938717 14.159659 -0.806265 -21.920010 16.622934 13.354458 17.761482 4.104909 4.556712 4.481958 -3.528595 -16.429552 -4.163068 -3.055490 1.118094 0.000000 0.000000 0.000000 -0.719845 14.076919 -0.940154 1.035229 -11.251047 2.751086 6.630931 -2.029576 -3.255818 -10.418685 -12.029595 10.447627 0.962269 0.127766 -18.031484 0.000000 0.000000 0.000000 -0.694581 15.132489 -1.489197 3.539732 -3.053483 4.546310 -1.739798 0.091876 2.951021 0.109447 -0.107186 -0.059296 0.000000 0.000000 0.000000 -0.516690 2.994100 2.722199 16.425078 1.975593 1.025366 -3.669906 -15.962384 -15.053414 0.000000 0.000000 0.000000 -1.602334 1.313714 1.704141 -0.332539 -18.924709 -13.728813 0.905095 -0.435384 -3.699498 13.667471 -3.801331 -69.226904 2.562827 -7.859768 3.496789 0.000000 0.000000 0.000000 -0.137486 1.882812 2.858175 2.131665 4.805189 17.696721 -4.115545 1.471036 -0.693531 15.569795 9.395870 52.847404 -3.761588 -3.982072 1.770962 0.000000 0.000000 0.000000 
